<svg width="25" height="25" viewBox="0 0 25 25" fill="none" xmlns="http://www.w3.org/2000/svg">
<g clip-path="url(#clip0_616_4065)">
<path d="M22.4579 15.3477V6.2417L11.6469 0L0.835938 6.2417V18.7251L11.6469 24.9668L14.5229 23.3063C15.5443 24.3506 16.9681 25 18.5408 25C21.6411 25 24.1635 22.4776 24.1635 19.3773C24.1635 17.7985 23.5092 16.37 22.4579 15.3477ZM11.6469 1.69365L20.2577 6.66509L16.6857 8.72739L8.0749 3.75596L11.6469 1.69365ZM10.9135 22.8497L2.30273 17.8782V7.9354L10.9135 12.9068V22.8497ZM3.03613 6.66509L6.60811 4.60278L15.2189 9.57422L11.6469 11.6365L3.03613 6.66509ZM12.3803 22.8497V12.9068L20.991 7.93535V14.3172C20.25 13.9569 19.4186 13.7546 18.5408 13.7546C15.4404 13.7546 12.9181 16.277 12.9181 19.3773C12.9181 20.3745 13.1793 21.3116 13.6364 22.1245L12.3803 22.8497ZM18.5408 23.5332C16.2492 23.5332 14.3849 21.6688 14.3849 19.3773C14.3849 17.0857 16.2492 15.2214 18.5408 15.2214C20.8323 15.2214 22.6967 17.0857 22.6967 19.3773C22.6967 21.6688 20.8324 23.5332 18.5408 23.5332Z" fill="black"/>
<path d="M20.2787 17.2467L17.8771 19.6615L16.8014 18.5966L15.7695 19.639L17.8853 21.7334L21.3187 18.281L20.2787 17.2467Z" fill="black"/>
</g>
<defs>
<clipPath id="clip0_616_4065">
<rect width="25" height="25" fill="white"/>
</clipPath>
</defs>
</svg>
