<svg width="25" height="25" viewBox="0 0 25 25" fill="none" xmlns="http://www.w3.org/2000/svg">
<g clip-path="url(#clip0_616_4006)">
<path d="M15.9805 13.4487H17.4453V14.9135H15.9805V13.4487Z" fill="black"/>
<path d="M12.6094 13.4487H14.0742V14.9135H12.6094V13.4487Z" fill="black"/>
<path d="M9.23438 13.4487H10.6992V14.9135H9.23438V13.4487Z" fill="black"/>
<path d="M25 5.77568C25 2.59097 22.4091 0 19.2243 0C16.9007 0 14.8936 1.37939 13.9778 3.36216H5.09365L4.75742 0H0V1.46484H3.43174L3.64199 3.56709L4.97988 16.9462C4.03896 17.2759 3.36216 18.1723 3.36216 19.2243C3.36216 20.5551 4.44487 21.6378 5.77568 21.6378H6.90889C6.78384 21.9291 6.71435 22.2498 6.71435 22.5865C6.71435 23.9173 7.79702 25 9.12783 25C10.4586 25 11.5414 23.9173 11.5414 22.5865C11.5414 22.2499 11.4719 21.9292 11.3468 21.6378H15.3344C15.2093 21.9291 15.1398 22.2498 15.1398 22.5865C15.1398 23.9173 16.2226 25 17.5534 25C18.8842 25 19.9669 23.9173 19.9669 22.5865C19.9669 22.2499 19.8974 21.9292 19.7724 21.6378H21.5681V20.1729H5.77568C5.25259 20.1729 4.827 19.7474 4.827 19.2243C4.827 18.7012 5.25259 18.2756 5.77568 18.2756H21.5683L22.3316 10.6423C23.9351 9.61499 25 7.81738 25 5.77568ZM9.12778 23.5352C8.60469 23.5352 8.17915 23.1096 8.17915 22.5865C8.17915 22.0634 8.60469 21.6378 9.12778 21.6378C9.65088 21.6378 10.0765 22.0634 10.0765 22.5865C10.0765 23.1096 9.65088 23.5352 9.12778 23.5352ZM17.5533 23.5352C17.0302 23.5352 16.6046 23.1096 16.6046 22.5865C16.6046 22.0634 17.0302 21.6378 17.5533 21.6378C18.0764 21.6378 18.502 22.0634 18.502 22.5865C18.502 23.1096 18.0764 23.5352 17.5533 23.5352ZM19.2243 1.46484C21.6014 1.46484 23.5352 3.39868 23.5352 5.77568C23.5352 8.15269 21.6014 10.0865 19.2243 10.0865C16.8473 10.0865 14.9135 8.15269 14.9135 5.77568C14.9135 3.39868 16.8473 1.46484 19.2243 1.46484ZM20.2425 16.8108H6.43848L5.24014 4.827H13.527C13.4758 5.13579 13.4487 5.45259 13.4487 5.77568C13.4487 8.9604 16.0396 11.5514 19.2243 11.5514C19.7668 11.5514 20.2919 11.4761 20.7901 11.3356L20.2425 16.8108Z" fill="black"/>
<path d="M22.0284 4.90811L20.9926 3.87231L18.7396 6.12534L17.4577 4.84346L16.4219 5.87925L18.7396 8.19697L22.0284 4.90811Z" fill="black"/>
</g>
<defs>
<clipPath id="clip0_616_4006">
<rect width="25" height="25" fill="white"/>
</clipPath>
</defs>
</svg>
