<svg width="25" height="25" viewBox="0 0 25 25" fill="none" xmlns="http://www.w3.org/2000/svg">
<path d="M18.8817 14.8634C17.1441 14.8634 15.7305 16.2771 15.7305 18.0147C15.7305 19.7523 17.1441 21.166 18.8817 21.166C20.6197 21.166 22.033 19.7523 22.033 18.0147C22.033 16.2771 20.6194 14.8634 18.8817 14.8634ZM18.8817 19.5903C18.0128 19.5903 17.3061 18.8836 17.3061 18.0147C17.3061 17.1458 18.0128 16.4391 18.8817 16.4391C19.7507 16.4391 20.4574 17.1458 20.4574 18.0147C20.4574 18.8837 19.7507 19.5903 18.8817 19.5903Z" fill="black"/>
<path d="M8.11611 14.8634C6.37847 14.8634 4.96484 16.2771 4.96484 18.0147C4.96484 19.7523 6.37847 21.166 8.11611 21.166C9.85376 21.166 11.2674 19.7523 11.2674 18.0147C11.2674 16.2771 9.85376 14.8634 8.11611 14.8634ZM8.11611 19.5903C7.24717 19.5903 6.54048 18.8836 6.54048 18.0147C6.54048 17.1458 7.24717 16.4391 8.11611 16.4391C8.98481 16.4391 9.69175 17.1458 9.69175 18.0147C9.69175 18.8837 8.98506 19.5903 8.11611 19.5903Z" fill="black"/>
<path d="M21.0017 5.84351C20.8677 5.57749 20.5954 5.40967 20.2976 5.40967H16.1484V6.9853H19.8118L21.957 11.2521L23.3651 10.5441L21.0017 5.84351Z" fill="black"/>
<path d="M16.5197 17.2532H10.5586V18.8288H16.5197V17.2532Z" fill="black"/>
<path d="M5.74932 17.2532H3.01826C2.58311 17.2532 2.23047 17.6059 2.23047 18.041C2.23047 18.4761 2.58315 18.8288 3.01826 18.8288H5.74937C6.18452 18.8288 6.53716 18.4761 6.53716 18.041C6.53716 17.6058 6.18447 17.2532 5.74932 17.2532Z" fill="black"/>
<path d="M24.8329 12.437L23.2833 10.4412C23.1344 10.2489 22.9046 10.1365 22.6611 10.1365H16.9363V4.62182C16.9363 4.18667 16.5836 3.83403 16.1485 3.83403H3.01826C2.58311 3.83403 2.23047 4.18672 2.23047 4.62182C2.23047 5.05693 2.58315 5.40962 3.01826 5.40962H15.3607V10.9243C15.3607 11.3595 15.7134 11.7121 16.1485 11.7121H22.2753L23.4227 13.19V17.2531H21.243C20.8079 17.2531 20.4552 17.6058 20.4552 18.0409C20.4552 18.476 20.8079 18.8287 21.243 18.8287H24.2104C24.6456 18.8287 24.9982 18.476 24.9983 18.0409V12.9202C24.9983 12.7453 24.94 12.5751 24.8329 12.437Z" fill="black"/>
<path d="M5.69692 13.2616H2.07295C1.63779 13.2616 1.28516 13.6143 1.28516 14.0494C1.28516 14.4845 1.63784 14.8372 2.07295 14.8372H5.69688C6.13203 14.8372 6.48467 14.4845 6.48467 14.0494C6.48472 13.6143 6.13203 13.2616 5.69692 13.2616Z" fill="black"/>
<path d="M7.5105 10.1628H0.787793C0.352686 10.1628 0 10.5155 0 10.9506C0 11.3858 0.352686 11.7384 0.787793 11.7384H7.5105C7.94565 11.7384 8.29829 11.3857 8.29829 10.9506C8.29829 10.5155 7.94565 10.1628 7.5105 10.1628Z" fill="black"/>
<path d="M8.79565 7.06406H2.07295C1.63779 7.06406 1.28516 7.41675 1.28516 7.85186C1.28516 8.28701 1.63784 8.63965 2.07295 8.63965H8.79565C9.23081 8.63965 9.58345 8.28696 9.58345 7.85186C9.5835 7.41675 9.23081 7.06406 8.79565 7.06406Z" fill="black"/>
</svg>
