<svg width="25" height="25" viewBox="0 0 25 25" fill="none" xmlns="http://www.w3.org/2000/svg">
<g clip-path="url(#clip0_616_4047)">
<path d="M17.9688 15.625C17.5373 15.625 17.1875 15.2752 17.1875 14.8438C17.1875 14.4123 17.5373 14.0625 17.9688 14.0625H20.3125C20.744 14.0625 21.0938 14.4123 21.0938 14.8438C21.0938 15.2752 20.744 15.625 20.3125 15.625H17.9688Z" fill="black"/>
<path d="M13.2812 17.9688C12.8498 17.9688 12.5 17.619 12.5 17.1875C12.5 16.756 12.8498 16.4062 13.2812 16.4062H20.3125C20.744 16.4062 21.0938 16.756 21.0938 17.1875C21.0938 17.619 20.744 17.9688 20.3125 17.9688H13.2812Z" fill="black"/>
<path d="M7.9743 18.5212L4.8493 21.6462C4.5442 21.9512 4.04955 21.9512 3.74445 21.6462L2.57257 20.4743C2.26748 20.1692 2.26748 19.6745 2.57257 19.3694C2.87767 19.0644 3.37233 19.0644 3.67743 19.3694L4.29688 19.9889L6.86944 17.4163C7.17455 17.1112 7.6692 17.1112 7.9743 17.4163C8.27938 17.7214 8.27938 18.2161 7.9743 18.5212Z" fill="black"/>
<path fill-rule="evenodd" clip-rule="evenodd" d="M3.125 2.34375C3.125 1.04934 4.17434 0 5.46875 0H22.6562C23.9507 0 25 1.04934 25 2.34375V19.5312C25 20.8257 23.9507 21.875 22.6562 21.875H10.4113C9.53352 23.7226 7.65031 25 5.46875 25C2.44845 25 0 22.5516 0 19.5312C0 17.3497 1.27738 15.4665 3.125 14.5887V2.34375ZM22.6562 20.3125H10.8821C10.9186 20.0573 10.9375 19.7965 10.9375 19.5312C10.9375 16.5109 8.48906 14.0625 5.46875 14.0625C5.2035 14.0625 4.94266 14.0814 4.6875 14.1179V2.34375C4.6875 1.91228 5.03728 1.5625 5.46875 1.5625H10.1562V7.03125C10.1562 7.46273 10.506 7.8125 10.9375 7.8125H17.1875C17.619 7.8125 17.9688 7.46273 17.9688 7.03125V1.5625H22.6562C23.0877 1.5625 23.4375 1.91228 23.4375 2.34375V19.5312C23.4375 19.9627 23.0877 20.3125 22.6562 20.3125ZM11.7188 1.5625V6.25H16.4062V1.5625H11.7188ZM5.46875 15.625C3.31139 15.625 1.5625 17.3739 1.5625 19.5312C1.5625 21.6886 3.31139 23.4375 5.46875 23.4375C7.62611 23.4375 9.375 21.6886 9.375 19.5312C9.375 17.3739 7.62611 15.625 5.46875 15.625Z" fill="black"/>
</g>
<defs>
<clipPath id="clip0_616_4047">
<rect width="25" height="25" fill="white"/>
</clipPath>
</defs>
</svg>
