<svg width="25" height="25" viewBox="0 0 25 25" fill="none" xmlns="http://www.w3.org/2000/svg">
<g clip-path="url(#clip0_616_4013)">
<path fill-rule="evenodd" clip-rule="evenodd" d="M10.2285 0.206074C10.9658 0.0706315 11.7251 0 12.5 0C19.4035 0 25 5.59644 25 12.5C25 19.4035 19.4035 25 12.5 25C11.7251 25 10.9658 24.9294 10.2285 24.794C9.66265 24.69 9.28821 24.1471 9.39213 23.5812C9.49607 23.0154 10.039 22.6409 10.6049 22.7449C11.2186 22.8576 11.852 22.9167 12.5 22.9167C18.2529 22.9167 22.9167 18.2529 22.9167 12.5C22.9167 6.74703 18.2529 2.08333 12.5 2.08333C11.852 2.08333 11.2186 2.14239 10.6049 2.25513C10.039 2.35906 9.49607 1.98462 9.39213 1.41879C9.28821 0.85296 9.66265 0.310008 10.2285 0.206074ZM7.67251 2.053C7.96057 2.55098 7.79041 3.1882 7.29243 3.47626C5.87139 4.29828 4.66196 5.44678 3.76729 6.81893C3.45308 7.30084 2.8077 7.43679 2.32579 7.12257C1.84387 6.80836 1.70794 6.16298 2.02215 5.68107C3.09487 4.03581 4.5445 2.65905 6.24924 1.67292C6.74722 1.38484 7.38444 1.55502 7.67251 2.053ZM12.5 5.20833C13.0753 5.20833 13.5417 5.67471 13.5417 6.25V11.9788L17.2918 14.7917C17.752 15.137 17.8452 15.7899 17.5 16.2501C17.1547 16.7103 16.5018 16.8035 16.0416 16.4583L11.8873 13.342C11.8249 13.2967 11.7783 13.2522 11.7465 13.2189C11.6576 13.1258 11.6021 13.0331 11.5682 12.9654C11.5344 12.8977 11.4935 12.7977 11.4724 12.6707C11.4648 12.6252 11.4572 12.5612 11.4583 12.4841V6.25C11.4583 5.67471 11.9247 5.20833 12.5 5.20833ZM1.57469 8.88121C2.13505 9.01144 2.48375 9.57127 2.35352 10.1316C2.17693 10.8915 2.08333 11.6842 2.08333 12.5C2.08333 13.3158 2.17693 14.1085 2.35352 14.8683C2.48375 15.4287 2.13505 15.9885 1.57469 16.1187C1.01433 16.2491 0.454494 15.9003 0.324264 15.34C0.111992 14.4266 0 13.4757 0 12.5C0 11.5243 0.111992 10.5734 0.324264 9.66003C0.454494 9.09967 1.01433 8.75098 1.57469 8.88121ZM2.32579 17.8774C2.8077 17.5632 3.45308 17.6992 3.76729 18.181C4.66196 19.5532 5.87139 20.7017 7.29243 21.5237C7.79041 21.8118 7.96057 22.4491 7.67251 22.947C7.38444 23.445 6.74722 23.6151 6.24924 23.3271C4.5445 22.3409 3.09487 20.9642 2.02215 19.319C1.70794 18.837 1.84387 18.1917 2.32579 17.8774Z" fill="black"/>
</g>
<defs>
<clipPath id="clip0_616_4013">
<rect width="25" height="25" fill="white"/>
</clipPath>
</defs>
</svg>
