<svg width="25" height="25" viewBox="0 0 25 25" fill="none" xmlns="http://www.w3.org/2000/svg">
<path d="M4.00149 5.56563C2.32077 7.33844 1.29719 9.63294 1.10081 12.0679C0.887133 14.6008 1.57216 17.128 3.03571 19.2063C4.49926 21.2845 6.64787 22.7811 9.10462 23.4333C9.17952 23.4547 9.25793 23.4608 9.33525 23.4515C9.41257 23.4422 9.48725 23.4175 9.55493 23.379C9.62261 23.3404 9.68193 23.2888 9.72941 23.227C9.7769 23.1653 9.8116 23.0947 9.83149 23.0194C9.85138 22.9441 9.85606 22.8656 9.84525 22.7885C9.83444 22.7114 9.80837 22.6371 9.76855 22.5702C9.72873 22.5033 9.67597 22.445 9.61335 22.3987C9.55072 22.3523 9.4795 22.319 9.40383 22.3005C7.3511 21.755 5.53579 20.5472 4.23953 18.8647C2.94327 17.1821 2.23853 15.1188 2.23463 12.9948C2.23074 10.8708 2.92791 8.80492 4.21799 7.11761C5.50807 5.4303 7.31894 4.21591 9.36965 3.66284L8.14016 5.02212C8.08854 5.07919 8.04867 5.14586 8.02282 5.21834C7.99697 5.29082 7.98565 5.36768 7.9895 5.44453C7.99336 5.52139 8.01231 5.59673 8.04528 5.66626C8.07825 5.73578 8.1246 5.79814 8.18167 5.84976C8.23873 5.90137 8.30541 5.94125 8.37789 5.9671C8.45037 5.99295 8.52723 6.00427 8.60408 6.00041C8.68093 5.99656 8.75627 5.97761 8.8258 5.94463C8.89533 5.91166 8.95768 5.86532 9.0093 5.80825L11.3845 3.18242C11.4382 3.12303 11.4792 3.05325 11.5049 2.9774C11.5306 2.90155 11.5405 2.82124 11.5339 2.74142C11.5273 2.6616 11.5045 2.58398 11.4668 2.51334C11.429 2.4427 11.3772 2.38055 11.3145 2.33071L8.54246 0.127246C8.42071 0.0315436 8.26604 -0.0120737 8.11223 0.00592748C7.95842 0.0239286 7.818 0.102084 7.72164 0.223312C7.62529 0.34454 7.58084 0.498982 7.59802 0.652883C7.61519 0.806783 7.6926 0.947626 7.81331 1.04463L9.53894 2.41631C7.42037 2.89038 5.49195 3.98713 4.00149 5.56563Z" fill="black"/>
<path d="M23.9408 12.7836C23.9408 12.6282 23.879 12.4792 23.7692 12.3693C23.6593 12.2594 23.5102 12.1977 23.3548 12.1977H22.1055C21.9501 12.1977 21.801 12.2594 21.6911 12.3693C21.5813 12.4792 21.5195 12.6282 21.5195 12.7836C21.5195 12.939 21.5813 13.088 21.6911 13.1979C21.801 13.3078 21.9501 13.3695 22.1055 13.3695H23.3548C23.5102 13.3695 23.6593 13.3078 23.7692 13.1979C23.879 13.088 23.9408 12.939 23.9408 12.7836Z" fill="black"/>
<path d="M21.6862 15.9842C21.5418 15.9289 21.3814 15.9329 21.2399 15.9953C21.0985 16.0578 20.9874 16.1736 20.931 16.3176C20.8746 16.4615 20.8774 16.622 20.9387 16.7639C21.0001 16.9058 21.1151 17.0177 21.2586 17.0752L22.4219 17.5311C22.5664 17.5869 22.727 17.5831 22.8688 17.5208C23.0105 17.4584 23.1218 17.3424 23.1783 17.1982C23.2348 17.0541 23.232 16.8934 23.1703 16.7513C23.1087 16.6092 22.9933 16.4973 22.8495 16.44L21.6862 15.9842Z" fill="black"/>
<path d="M19.1211 20.2169L20.0378 21.0659C20.1519 21.171 20.303 21.2265 20.458 21.2203C20.613 21.2141 20.7592 21.1468 20.8646 21.033C20.97 20.9192 21.0259 20.7682 21.0202 20.6132C21.0145 20.4582 20.9475 20.3118 20.834 20.2061L19.9173 19.3572C19.861 19.3041 19.7948 19.2628 19.7224 19.2355C19.65 19.2082 19.5729 19.1955 19.4956 19.1981C19.4183 19.2008 19.3423 19.2187 19.2719 19.2509C19.2016 19.2831 19.1383 19.3288 19.0857 19.3856C19.0332 19.4424 18.9924 19.509 18.9657 19.5816C18.939 19.6542 18.9269 19.7314 18.9302 19.8086C18.9335 19.8859 18.9521 19.9618 18.9848 20.0319C19.0176 20.102 19.0639 20.1649 19.1211 20.2169Z" fill="black"/>
<path d="M16.2528 21.5791C16.1129 21.6467 16.0056 21.7671 15.9545 21.9139C15.9034 22.0606 15.9126 22.2217 15.9803 22.3616L16.524 23.4863C16.5917 23.6262 16.7121 23.7336 16.8589 23.7847C17.0056 23.8358 17.1667 23.8265 17.3066 23.7589C17.4465 23.6912 17.5538 23.5708 17.6049 23.424C17.656 23.2773 17.6467 23.1162 17.5791 22.9763L17.0353 21.8516C16.9677 21.7117 16.8472 21.6044 16.7005 21.5533C16.5537 21.5021 16.3927 21.5114 16.2528 21.5791Z" fill="black"/>
<path d="M12.8183 22.5841C12.6634 22.596 12.5195 22.669 12.4184 22.787C12.3173 22.905 12.2672 23.0583 12.2791 23.2133L12.3749 24.459C12.3862 24.606 12.4526 24.7434 12.5608 24.8437C12.6689 24.944 12.811 24.9998 12.9585 25C12.9736 25 12.9887 24.9995 13.004 24.9982C13.159 24.9863 13.3028 24.9133 13.4039 24.7954C13.5051 24.6774 13.5552 24.5241 13.5433 24.3691L13.4474 23.1234C13.4355 22.9684 13.3625 22.8246 13.2446 22.7235C13.1266 22.6223 12.9733 22.5722 12.8183 22.5841Z" fill="black"/>
<path d="M13.1374 3.41856C13.2782 3.41838 13.4142 3.3675 13.5206 3.27525C13.6269 3.18299 13.6965 3.05552 13.7166 2.91616L13.8948 1.67949C13.9067 1.6029 13.9034 1.5247 13.8849 1.44941C13.8664 1.37413 13.8332 1.30326 13.7871 1.24092C13.741 1.17858 13.683 1.126 13.6165 1.08623C13.5499 1.04646 13.4762 1.02028 13.3994 1.00923C13.3227 0.998169 13.2446 1.00245 13.1695 1.02181C13.0944 1.04118 13.024 1.07525 12.9622 1.12204C12.9004 1.16884 12.8485 1.22743 12.8095 1.29443C12.7705 1.36143 12.7451 1.4355 12.735 1.51235L12.5567 2.74902C12.5448 2.83223 12.5509 2.91702 12.5746 2.99765C12.5983 3.07829 12.6391 3.15289 12.6942 3.21638C12.7492 3.27988 12.8173 3.3308 12.8938 3.36568C12.9703 3.40056 13.0533 3.41859 13.1374 3.41856Z" fill="black"/>
<path d="M16.7537 4.57807C16.8573 4.57816 16.9591 4.55076 17.0487 4.49866C17.1383 4.44655 17.2125 4.37162 17.2637 4.28149L17.8808 3.19516C17.9563 3.06013 17.9753 2.90072 17.9337 2.75172C17.8921 2.60271 17.7933 2.4762 17.6588 2.39978C17.5243 2.32336 17.365 2.30324 17.2157 2.34381C17.0664 2.38437 16.9393 2.48233 16.8619 2.61631L16.2445 3.70264C16.1938 3.79175 16.1675 3.89258 16.168 3.99507C16.1685 4.09757 16.1959 4.19813 16.2474 4.28673C16.2989 4.37533 16.3728 4.44886 16.4616 4.49998C16.5505 4.55111 16.6512 4.57803 16.7537 4.57807Z" fill="black"/>
<path d="M20.2995 5.15006L19.3285 5.93619C19.2676 5.98423 19.2169 6.04389 19.1792 6.1117C19.1415 6.17951 19.1177 6.25413 19.1091 6.33122C19.1005 6.40831 19.1073 6.48635 19.1291 6.5608C19.1508 6.63525 19.1872 6.70463 19.236 6.76492C19.2848 6.82522 19.3451 6.87522 19.4134 6.91202C19.4817 6.94883 19.5566 6.97171 19.6338 6.97934C19.711 6.98697 19.7889 6.97919 19.8631 6.95646C19.9373 6.93373 20.0062 6.8965 20.0658 6.84693L21.0368 6.0608C21.1554 5.96232 21.2303 5.8211 21.2455 5.66773C21.2607 5.51437 21.2148 5.36121 21.1178 5.24143C21.0208 5.12165 20.8806 5.04489 20.7274 5.02779C20.5743 5.01069 20.4205 5.05462 20.2995 5.15006H20.2995Z" fill="black"/>
<path d="M22.5778 8.76417L21.3869 9.14195C21.3124 9.16422 21.243 9.20111 21.1829 9.25046C21.1228 9.2998 21.0731 9.36062 21.0367 9.42937C21.0004 9.49812 20.9781 9.57342 20.9711 9.65088C20.9641 9.72834 20.9727 9.80641 20.9962 9.88054C21.0197 9.95467 21.0577 10.0234 21.1081 10.0827C21.1584 10.1419 21.2201 10.1906 21.2894 10.2258C21.3588 10.261 21.4344 10.2821 21.512 10.2877C21.5896 10.2934 21.6675 10.2836 21.7412 10.2588L22.9321 9.88101C23.0803 9.83402 23.2037 9.73011 23.2752 9.59214C23.3467 9.45418 23.3605 9.29345 23.3135 9.14532C23.2665 8.99719 23.1626 8.87379 23.0246 8.80228C22.8867 8.73076 22.7259 8.71698 22.5778 8.76397V8.76417Z" fill="black"/>
<path d="M11.8359 6.96777V12.5C11.8359 12.6554 11.8977 12.8044 12.0076 12.9143C12.1174 13.0242 12.2665 13.0859 12.4219 13.0859H17.3786C17.534 13.0859 17.683 13.0242 17.7929 12.9143C17.9028 12.8044 17.9645 12.6554 17.9645 12.5C17.9645 12.3446 17.9028 12.1956 17.7929 12.0857C17.683 11.9758 17.534 11.9141 17.3786 11.9141H13.0078V6.96777C13.0078 6.81237 12.9461 6.66334 12.8362 6.55345C12.7263 6.44357 12.5773 6.38184 12.4219 6.38184C12.2665 6.38184 12.1174 6.44357 12.0076 6.55345C11.8977 6.66334 11.8359 6.81237 11.8359 6.96777Z" fill="black"/>
</svg>
